<mxfile host="app.diagrams.net" modified="2024-06-01T06:57:35.206Z" agent="Mozilla/5.0 (X11; Linux x86_64; rv:126.0) Gecko/20100101 Firefox/126.0" etag="vgj77--5a2mUoOREMLJf" version="24.4.13" type="github">
  <diagram name="Page-1" id="l_maYf0zPeK9SHwQB1_e">
    <mxGraphModel dx="1715" dy="816" grid="1" gridSize="10" guides="1" tooltips="1" connect="1" arrows="1" fold="1" page="1" pageScale="1" pageWidth="850" pageHeight="1100" math="0" shadow="0">
      <root>
        <mxCell id="0" />
        <mxCell id="1" parent="0" />
        <mxCell id="D_PICFwlep8kByozvsqL-9" style="edgeStyle=none;curved=1;rounded=0;orthogonalLoop=1;jettySize=auto;html=1;fontFamily=Architects Daughter;fontSource=https%3A%2F%2Ffonts.googleapis.com%2Fcss%3Ffamily%3DArchitects%2BDaughter;fontSize=16;startSize=14;endArrow=open;endSize=14;sourcePerimeterSpacing=8;targetPerimeterSpacing=8;" edge="1" parent="1" source="D_PICFwlep8kByozvsqL-1" target="D_PICFwlep8kByozvsqL-8">
          <mxGeometry relative="1" as="geometry" />
        </mxCell>
        <mxCell id="D_PICFwlep8kByozvsqL-1" value="&lt;div&gt;User&lt;/div&gt;&lt;div&gt;Core&lt;/div&gt;" style="rounded=1;whiteSpace=wrap;html=1;fontFamily=Architects Daughter;fontSource=https%3A%2F%2Ffonts.googleapis.com%2Fcss%3Ffamily%3DArchitects%2BDaughter;" vertex="1" parent="1">
          <mxGeometry x="500" y="380" width="120" height="120" as="geometry" />
        </mxCell>
        <mxCell id="D_PICFwlep8kByozvsqL-2" value="DB" style="shape=cylinder3;whiteSpace=wrap;html=1;boundedLbl=1;backgroundOutline=1;size=15;fontFamily=Architects Daughter;fontSource=https%3A%2F%2Ffonts.googleapis.com%2Fcss%3Ffamily%3DArchitects%2BDaughter;" vertex="1" parent="1">
          <mxGeometry x="720" y="400" width="60" height="80" as="geometry" />
        </mxCell>
        <mxCell id="D_PICFwlep8kByozvsqL-4" value="User&lt;br&gt;Authentication" style="rounded=1;whiteSpace=wrap;html=1;fontFamily=Architects Daughter;fontSource=https%3A%2F%2Ffonts.googleapis.com%2Fcss%3Ffamily%3DArchitects%2BDaughter;" vertex="1" parent="1">
          <mxGeometry x="290" y="260" width="120" height="120" as="geometry" />
        </mxCell>
        <mxCell id="D_PICFwlep8kByozvsqL-5" value="User&lt;br&gt;Manager" style="rounded=1;whiteSpace=wrap;html=1;fontFamily=Architects Daughter;fontSource=https%3A%2F%2Ffonts.googleapis.com%2Fcss%3Ffamily%3DArchitects%2BDaughter;" vertex="1" parent="1">
          <mxGeometry x="290" y="500" width="120" height="120" as="geometry" />
        </mxCell>
        <mxCell id="D_PICFwlep8kByozvsqL-6" style="edgeStyle=none;curved=1;rounded=0;orthogonalLoop=1;jettySize=auto;html=1;entryX=1.011;entryY=0.617;entryDx=0;entryDy=0;entryPerimeter=0;fontFamily=Architects Daughter;fontSource=https%3A%2F%2Ffonts.googleapis.com%2Fcss%3Ffamily%3DArchitects%2BDaughter;fontSize=16;startSize=14;endArrow=open;endSize=14;sourcePerimeterSpacing=8;targetPerimeterSpacing=8;" edge="1" parent="1" source="D_PICFwlep8kByozvsqL-1" target="D_PICFwlep8kByozvsqL-4">
          <mxGeometry relative="1" as="geometry" />
        </mxCell>
        <mxCell id="D_PICFwlep8kByozvsqL-7" style="edgeStyle=none;curved=1;rounded=0;orthogonalLoop=1;jettySize=auto;html=1;entryX=1;entryY=0.5;entryDx=0;entryDy=0;fontFamily=Architects Daughter;fontSource=https%3A%2F%2Ffonts.googleapis.com%2Fcss%3Ffamily%3DArchitects%2BDaughter;fontSize=16;startSize=14;endArrow=open;endSize=14;sourcePerimeterSpacing=8;targetPerimeterSpacing=8;" edge="1" parent="1" source="D_PICFwlep8kByozvsqL-1" target="D_PICFwlep8kByozvsqL-5">
          <mxGeometry relative="1" as="geometry" />
        </mxCell>
        <mxCell id="D_PICFwlep8kByozvsqL-8" value="&lt;div&gt;Security&lt;/div&gt;" style="rounded=1;whiteSpace=wrap;html=1;fontFamily=Architects Daughter;fontSource=https%3A%2F%2Ffonts.googleapis.com%2Fcss%3Ffamily%3DArchitects%2BDaughter;" vertex="1" parent="1">
          <mxGeometry x="500" y="820" width="120" height="120" as="geometry" />
        </mxCell>
        <mxCell id="D_PICFwlep8kByozvsqL-10" style="edgeStyle=none;curved=1;rounded=0;orthogonalLoop=1;jettySize=auto;html=1;entryX=0;entryY=0.5;entryDx=0;entryDy=0;entryPerimeter=0;fontFamily=Architects Daughter;fontSource=https%3A%2F%2Ffonts.googleapis.com%2Fcss%3Ffamily%3DArchitects%2BDaughter;fontSize=16;startSize=14;endArrow=open;endSize=14;sourcePerimeterSpacing=8;targetPerimeterSpacing=8;" edge="1" parent="1" source="D_PICFwlep8kByozvsqL-1" target="D_PICFwlep8kByozvsqL-2">
          <mxGeometry relative="1" as="geometry" />
        </mxCell>
        <mxCell id="D_PICFwlep8kByozvsqL-11" style="edgeStyle=none;curved=1;rounded=0;orthogonalLoop=1;jettySize=auto;html=1;exitX=0;exitY=1;exitDx=0;exitDy=-15;exitPerimeter=0;entryX=1.011;entryY=0.708;entryDx=0;entryDy=0;entryPerimeter=0;fontFamily=Architects Daughter;fontSource=https%3A%2F%2Ffonts.googleapis.com%2Fcss%3Ffamily%3DArchitects%2BDaughter;fontSize=16;startSize=14;endArrow=open;endSize=14;sourcePerimeterSpacing=8;targetPerimeterSpacing=8;" edge="1" parent="1" source="D_PICFwlep8kByozvsqL-2" target="D_PICFwlep8kByozvsqL-1">
          <mxGeometry relative="1" as="geometry" />
        </mxCell>
        <mxCell id="D_PICFwlep8kByozvsqL-12" style="edgeStyle=none;curved=1;rounded=0;orthogonalLoop=1;jettySize=auto;html=1;entryX=-0.034;entryY=0.367;entryDx=0;entryDy=0;entryPerimeter=0;fontFamily=Architects Daughter;fontSource=https%3A%2F%2Ffonts.googleapis.com%2Fcss%3Ffamily%3DArchitects%2BDaughter;fontSize=16;startSize=14;endArrow=open;endSize=14;sourcePerimeterSpacing=8;targetPerimeterSpacing=8;" edge="1" parent="1" source="D_PICFwlep8kByozvsqL-4" target="D_PICFwlep8kByozvsqL-1">
          <mxGeometry relative="1" as="geometry" />
        </mxCell>
        <mxCell id="D_PICFwlep8kByozvsqL-13" style="edgeStyle=none;curved=1;rounded=0;orthogonalLoop=1;jettySize=auto;html=1;entryX=0.004;entryY=0.632;entryDx=0;entryDy=0;entryPerimeter=0;fontFamily=Architects Daughter;fontSource=https%3A%2F%2Ffonts.googleapis.com%2Fcss%3Ffamily%3DArchitects%2BDaughter;fontSize=16;startSize=14;endArrow=open;endSize=14;sourcePerimeterSpacing=8;targetPerimeterSpacing=8;" edge="1" parent="1" source="D_PICFwlep8kByozvsqL-5" target="D_PICFwlep8kByozvsqL-1">
          <mxGeometry relative="1" as="geometry" />
        </mxCell>
      </root>
    </mxGraphModel>
  </diagram>
</mxfile>
